<mxfile host="Electron" modified="2024-04-08T22:58:11.049Z" agent="Mozilla/5.0 (Windows NT 10.0; Win64; x64) AppleWebKit/537.36 (KHTML, like Gecko) draw.io/24.1.0 Chrome/120.0.6099.109 Electron/28.1.0 Safari/537.36" etag="dVdEFJKBXGlQn8rALaEb" version="24.1.0" type="device">
  <diagram name="PÃ¡gina-1" id="C5mN0T4RQi6MkL2sQ6jZ">
    <mxGraphModel dx="926" dy="552" grid="1" gridSize="10" guides="1" tooltips="1" connect="1" arrows="1" fold="1" page="1" pageScale="1" pageWidth="827" pageHeight="1169" math="0" shadow="0">
      <root>
        <mxCell id="0" />
        <mxCell id="1" parent="0" />
        <mxCell id="bx2iDQfdoqcIiMMlf8HW-1" value="Pay_form" style="swimlane;fontStyle=1;align=center;verticalAlign=top;childLayout=stackLayout;horizontal=1;startSize=26;horizontalStack=0;resizeParent=1;resizeParentMax=0;resizeLast=0;collapsible=1;marginBottom=0;whiteSpace=wrap;html=1;" vertex="1" parent="1">
          <mxGeometry x="294" y="80" width="240" height="290" as="geometry" />
        </mxCell>
        <mxCell id="bx2iDQfdoqcIiMMlf8HW-2" value="login_status: Costumer" style="text;strokeColor=none;fillColor=none;align=left;verticalAlign=top;spacingLeft=4;spacingRight=4;overflow=hidden;rotatable=0;points=[[0,0.5],[1,0.5]];portConstraint=eastwest;whiteSpace=wrap;html=1;" vertex="1" parent="bx2iDQfdoqcIiMMlf8HW-1">
          <mxGeometry y="26" width="240" height="26" as="geometry" />
        </mxCell>
        <mxCell id="bx2iDQfdoqcIiMMlf8HW-8" value="user_name: Costumer" style="text;strokeColor=none;fillColor=none;align=left;verticalAlign=top;spacingLeft=4;spacingRight=4;overflow=hidden;rotatable=0;points=[[0,0.5],[1,0.5]];portConstraint=eastwest;whiteSpace=wrap;html=1;" vertex="1" parent="bx2iDQfdoqcIiMMlf8HW-1">
          <mxGeometry y="52" width="240" height="26" as="geometry" />
        </mxCell>
        <mxCell id="bx2iDQfdoqcIiMMlf8HW-5" value="phone_number: Costumer" style="text;strokeColor=none;fillColor=none;align=left;verticalAlign=top;spacingLeft=4;spacingRight=4;overflow=hidden;rotatable=0;points=[[0,0.5],[1,0.5]];portConstraint=eastwest;whiteSpace=wrap;html=1;" vertex="1" parent="bx2iDQfdoqcIiMMlf8HW-1">
          <mxGeometry y="78" width="240" height="26" as="geometry" />
        </mxCell>
        <mxCell id="bx2iDQfdoqcIiMMlf8HW-7" value="login_status: Costumer" style="text;strokeColor=none;fillColor=none;align=left;verticalAlign=top;spacingLeft=4;spacingRight=4;overflow=hidden;rotatable=0;points=[[0,0.5],[1,0.5]];portConstraint=eastwest;whiteSpace=wrap;html=1;" vertex="1" parent="bx2iDQfdoqcIiMMlf8HW-1">
          <mxGeometry y="104" width="240" height="26" as="geometry" />
        </mxCell>
        <mxCell id="bx2iDQfdoqcIiMMlf8HW-6" value="password: Costumer" style="text;strokeColor=none;fillColor=none;align=left;verticalAlign=top;spacingLeft=4;spacingRight=4;overflow=hidden;rotatable=0;points=[[0,0.5],[1,0.5]];portConstraint=eastwest;whiteSpace=wrap;html=1;" vertex="1" parent="bx2iDQfdoqcIiMMlf8HW-1">
          <mxGeometry y="130" width="240" height="26" as="geometry" />
        </mxCell>
        <mxCell id="bx2iDQfdoqcIiMMlf8HW-10" value="shipping_address: Costumer" style="text;strokeColor=none;fillColor=none;align=left;verticalAlign=top;spacingLeft=4;spacingRight=4;overflow=hidden;rotatable=0;points=[[0,0.5],[1,0.5]];portConstraint=eastwest;whiteSpace=wrap;html=1;" vertex="1" parent="bx2iDQfdoqcIiMMlf8HW-1">
          <mxGeometry y="156" width="240" height="40" as="geometry" />
        </mxCell>
        <mxCell id="bx2iDQfdoqcIiMMlf8HW-3" value="" style="line;strokeWidth=1;fillColor=none;align=left;verticalAlign=middle;spacingTop=-1;spacingLeft=3;spacingRight=3;rotatable=0;labelPosition=right;points=[];portConstraint=eastwest;strokeColor=inherit;" vertex="1" parent="bx2iDQfdoqcIiMMlf8HW-1">
          <mxGeometry y="196" width="240" height="8" as="geometry" />
        </mxCell>
        <mxCell id="bx2iDQfdoqcIiMMlf8HW-4" value="user_data():&amp;nbsp;" style="text;strokeColor=none;fillColor=none;align=left;verticalAlign=top;spacingLeft=4;spacingRight=4;overflow=hidden;rotatable=0;points=[[0,0.5],[1,0.5]];portConstraint=eastwest;whiteSpace=wrap;html=1;" vertex="1" parent="bx2iDQfdoqcIiMMlf8HW-1">
          <mxGeometry y="204" width="240" height="26" as="geometry" />
        </mxCell>
        <mxCell id="bx2iDQfdoqcIiMMlf8HW-11" value="modify_current_stock():&amp;nbsp;" style="text;strokeColor=none;fillColor=none;align=left;verticalAlign=top;spacingLeft=4;spacingRight=4;overflow=hidden;rotatable=0;points=[[0,0.5],[1,0.5]];portConstraint=eastwest;whiteSpace=wrap;html=1;" vertex="1" parent="bx2iDQfdoqcIiMMlf8HW-1">
          <mxGeometry y="230" width="240" height="26" as="geometry" />
        </mxCell>
        <mxCell id="bx2iDQfdoqcIiMMlf8HW-12" value="save_product_on_user_history():&amp;nbsp;" style="text;strokeColor=none;fillColor=none;align=left;verticalAlign=top;spacingLeft=4;spacingRight=4;overflow=hidden;rotatable=0;points=[[0,0.5],[1,0.5]];portConstraint=eastwest;html=1;whiteSpace=wrap;" vertex="1" parent="bx2iDQfdoqcIiMMlf8HW-1">
          <mxGeometry y="256" width="240" height="34" as="geometry" />
        </mxCell>
      </root>
    </mxGraphModel>
  </diagram>
</mxfile>
